<svg  viewBox="0 0 40 40" fill="none" xmlns="http://www.w3.org/2000/svg">
<path d="M24.9892 13.8934C24.7677 13.8934 24.5512 13.9591 24.367 14.0822C24.1828 14.2052 24.0392 14.3801 23.9545 14.5848C23.8697 14.7894 23.8475 15.0146 23.8907 15.2319C23.9339 15.4492 24.0406 15.6487 24.1973 15.8054C24.3539 15.962 24.5535 16.0687 24.7707 16.1119C24.988 16.1551 25.2132 16.1329 25.4178 16.0481C25.6225 15.9634 25.7974 15.8198 25.9205 15.6356C26.0435 15.4515 26.1092 15.2349 26.1092 15.0134C26.1092 14.7164 25.9912 14.4315 25.7812 14.2214C25.5711 14.0114 25.2863 13.8934 24.9892 13.8934ZM29.2825 16.1521C29.2644 15.3777 29.1194 14.6115 28.8532 13.8841C28.6159 13.2617 28.2465 12.6981 27.7705 12.2321C27.3084 11.7537 26.7435 11.3866 26.1185 11.1587C25.393 10.8845 24.626 10.7361 23.8505 10.7201C22.8612 10.6641 22.5439 10.6641 20.0052 10.6641C17.4665 10.6641 17.1492 10.6641 16.1599 10.7201C15.3844 10.7361 14.6174 10.8845 13.8919 11.1587C13.2681 11.3889 12.7037 11.7557 12.2399 12.2321C11.7615 12.6942 11.3944 13.2591 11.1665 13.8841C10.8923 14.6096 10.7439 15.3766 10.7279 16.1521C10.6719 17.1414 10.6719 17.4587 10.6719 19.9974C10.6719 22.5361 10.6719 22.8534 10.7279 23.8427C10.7439 24.6182 10.8923 25.3852 11.1665 26.1107C11.3944 26.7357 11.7615 27.3006 12.2399 27.7627C12.7037 28.2391 13.2681 28.6059 13.8919 28.8361C14.6174 29.1103 15.3844 29.2587 16.1599 29.2747C17.1492 29.3307 17.4665 29.3307 20.0052 29.3307C22.5439 29.3307 22.8612 29.3307 23.8505 29.2747C24.626 29.2587 25.393 29.1103 26.1185 28.8361C26.7435 28.6082 27.3084 28.2411 27.7705 27.7627C28.2486 27.2985 28.6183 26.7344 28.8532 26.1107C29.1194 25.3833 29.2644 24.6171 29.2825 23.8427C29.2825 22.8534 29.3385 22.5361 29.3385 19.9974C29.3385 17.4587 29.3385 17.1414 29.2825 16.1521ZM27.6025 23.7307C27.5957 24.3232 27.4884 24.9102 27.2852 25.4667C27.1362 25.8729 26.8968 26.2399 26.5852 26.5401C26.2825 26.8485 25.9162 27.0874 25.5119 27.2401C24.9553 27.4433 24.3683 27.5506 23.7759 27.5574C22.8425 27.6041 22.4972 27.6134 20.0425 27.6134C17.5879 27.6134 17.2425 27.6134 16.3092 27.5574C15.694 27.5689 15.0815 27.4742 14.4985 27.2774C14.1119 27.1169 13.7625 26.8787 13.4719 26.5774C13.1621 26.2776 12.9257 25.9102 12.7812 25.5041C12.5533 24.9395 12.427 24.3392 12.4079 23.7307C12.4079 22.7974 12.3519 22.4521 12.3519 19.9974C12.3519 17.5427 12.3519 17.1974 12.4079 16.2641C12.4121 15.6584 12.5226 15.0581 12.7345 14.4907C12.8989 14.0968 13.1511 13.7456 13.4719 13.4641C13.7554 13.1432 14.1059 12.8883 14.4985 12.7174C15.0675 12.5121 15.6671 12.4048 16.2719 12.4001C17.2052 12.4001 17.5505 12.3441 20.0052 12.3441C22.4599 12.3441 22.8052 12.3441 23.7385 12.4001C24.331 12.4069 24.918 12.5142 25.4745 12.7174C25.8987 12.8748 26.2794 13.1307 26.5852 13.4641C26.8911 13.7508 27.1301 14.1013 27.2852 14.4907C27.4926 15.0591 27.6 15.6591 27.6025 16.2641C27.6492 17.1974 27.6585 17.5427 27.6585 19.9974C27.6585 22.4521 27.6492 22.7974 27.6025 23.7307ZM20.0052 15.2094C19.0586 15.2112 18.1338 15.4936 17.3477 16.0209C16.5615 16.5481 15.9493 17.2965 15.5883 18.1716C15.2274 19.0466 15.1339 20.009 15.3197 20.9372C15.5055 21.8654 15.9622 22.7176 16.6322 23.3863C17.3022 24.055 18.1554 24.5101 19.0839 24.6941C20.0124 24.8781 20.9746 24.7827 21.849 24.42C22.7233 24.0574 23.4706 23.4437 23.9963 22.6565C24.522 21.8693 24.8025 20.944 24.8025 19.9974C24.8038 19.3675 24.6805 18.7436 24.4397 18.1615C24.1989 17.5794 23.8455 17.0507 23.3996 16.6057C22.9538 16.1607 22.4244 15.8083 21.8418 15.5687C21.2593 15.329 20.6351 15.2069 20.0052 15.2094ZM20.0052 23.1054C19.3905 23.1054 18.7896 22.9231 18.2785 22.5816C17.7674 22.2401 17.369 21.7547 17.1338 21.1868C16.8986 20.6189 16.837 19.9939 16.9569 19.3911C17.0769 18.7882 17.3729 18.2344 17.8075 17.7997C18.2422 17.365 18.796 17.069 19.3989 16.9491C20.0018 16.8292 20.6267 16.8907 21.1946 17.126C21.7625 17.3612 22.2479 17.7596 22.5894 18.2707C22.9309 18.7818 23.1132 19.3827 23.1132 19.9974C23.1132 20.4055 23.0328 20.8097 22.8766 21.1868C22.7204 21.5639 22.4915 21.9065 22.2029 22.1951C21.9143 22.4837 21.5717 22.7126 21.1946 22.8688C20.8175 23.025 20.4134 23.1054 20.0052 23.1054Z" fill="#F6F5EF"/>
<rect x="1" y="1" width="39" height="39" rx="5.5" stroke="#F6F5EF" stroke-opacity="0.5"/>
</svg>
