<svg width="186" height="15" viewBox="0 0 186 15" fill="none" xmlns="http://www.w3.org/2000/svg">
<g id="yacht Adventures">
<path d="M4.29677 13.8V9.31801L0.0667725 1.20001H2.67677L5.46677 7.01401L8.23877 1.20001H10.8128L6.60077 9.31801V13.8H4.29677Z" fill="#F6F5EF"/>
<path d="M10.5598 13.8L15.1678 1.20001H17.7598L22.3678 13.8H19.9198L18.9118 10.884H13.9978L12.9718 13.8H10.5598ZM14.6278 9.08401H18.2818L16.4458 3.84601L14.6278 9.08401Z" fill="#F6F5EF"/>
<path d="M29.5162 14.016C28.2442 14.016 27.1522 13.746 26.2402 13.206C25.3282 12.654 24.6262 11.892 24.1342 10.92C23.6422 9.93601 23.3962 8.80201 23.3962 7.51801C23.3962 6.23401 23.6422 5.10001 24.1342 4.11601C24.6262 3.13201 25.3282 2.36401 26.2402 1.81201C27.1522 1.26001 28.2442 0.984009 29.5162 0.984009C31.0282 0.984009 32.2642 1.36201 33.2242 2.11801C34.1962 2.86201 34.8022 3.91201 35.0422 5.26801H32.5042C32.3482 4.58401 32.0122 4.05001 31.4962 3.66601C30.9922 3.27001 30.3202 3.07201 29.4802 3.07201C28.3162 3.07201 27.4042 3.46801 26.7442 4.26001C26.0842 5.05201 25.7542 6.13801 25.7542 7.51801C25.7542 8.89801 26.0842 9.98401 26.7442 10.776C27.4042 11.556 28.3162 11.946 29.4802 11.946C30.3202 11.946 30.9922 11.766 31.4962 11.406C32.0122 11.034 32.3482 10.524 32.5042 9.87601H35.0422C34.8022 11.172 34.1962 12.186 33.2242 12.918C32.2642 13.65 31.0282 14.016 29.5162 14.016Z" fill="#F6F5EF"/>
<path d="M37.6217 13.8V1.20001H39.9257V6.43801H45.5777V1.20001H47.8817V13.8H45.5777V8.31001H39.9257V13.8H37.6217Z" fill="#F6F5EF"/>
<path d="M53.8046 13.8V3.05401H50.1326V1.20001H59.7986V3.05401H56.1087V13.8H53.8046Z" fill="#F6F5EF"/>
<path d="M66.0645 13.8L70.6725 1.20001H73.2645L77.8725 13.8H75.4245L74.4165 10.884H69.5025L68.4765 13.8H66.0645ZM70.1325 9.08401H73.7865L71.9505 3.84601L70.1325 9.08401Z" fill="#F6F5EF"/>
<path d="M80.0356 13.8V1.20001H84.3376C85.8136 1.20001 87.0256 1.46401 87.9736 1.99201C88.9336 2.50801 89.6416 3.24001 90.0976 4.18801C90.5656 5.12401 90.7996 6.22801 90.7996 7.50001C90.7996 8.77201 90.5656 9.88201 90.0976 10.83C89.6416 11.766 88.9336 12.498 87.9736 13.026C87.0256 13.542 85.8136 13.8 84.3376 13.8H80.0356ZM82.3396 11.82H84.2296C85.2856 11.82 86.1196 11.652 86.7316 11.316C87.3436 10.968 87.7816 10.476 88.0456 9.84001C88.3096 9.19201 88.4416 8.41201 88.4416 7.50001C88.4416 6.60001 88.3096 5.82601 88.0456 5.17801C87.7816 4.53001 87.3436 4.03201 86.7316 3.68401C86.1196 3.33601 85.2856 3.16201 84.2296 3.16201H82.3396V11.82Z" fill="#F6F5EF"/>
<path d="M96.6046 13.8L91.9966 1.20001H94.4626L98.0266 11.442L101.609 1.20001H104.039L99.4306 13.8H96.6046Z" fill="#F6F5EF"/>
<path d="M106.077 13.8V1.20001H114.303V3.05401H108.381V6.51001H113.763V8.31001H108.381V11.946H114.303V13.8H106.077Z" fill="#F6F5EF"/>
<path d="M117.023 13.8V1.20001H119.327L125.249 10.074V1.20001H127.553V13.8H125.249L119.327 4.94401V13.8H117.023Z" fill="#F6F5EF"/>
<path d="M133.469 13.8V3.05401H129.797V1.20001H139.463V3.05401H135.773V13.8H133.469Z" fill="#F6F5EF"/>
<path d="M146.57 14.016C145.646 14.016 144.812 13.836 144.068 13.476C143.324 13.104 142.73 12.546 142.286 11.802C141.854 11.058 141.638 10.116 141.638 8.97601V1.20001H143.942V8.99401C143.942 9.97801 144.176 10.71 144.644 11.19C145.124 11.67 145.784 11.91 146.624 11.91C147.452 11.91 148.106 11.67 148.586 11.19C149.066 10.71 149.306 9.97801 149.306 8.99401V1.20001H151.61V8.97601C151.61 10.116 151.382 11.058 150.926 11.802C150.47 12.546 149.858 13.104 149.09 13.476C148.334 13.836 147.494 14.016 146.57 14.016Z" fill="#F6F5EF"/>
<path d="M154.502 13.8V1.20001H159.128C160.136 1.20001 160.964 1.37401 161.612 1.72201C162.272 2.05801 162.764 2.52001 163.088 3.10801C163.412 3.68401 163.574 4.32601 163.574 5.03401C163.574 5.80201 163.37 6.50401 162.962 7.14001C162.566 7.77601 161.942 8.23801 161.09 8.52601L163.7 13.8H161.054L158.714 8.83201H156.806V13.8H154.502ZM156.806 7.14001H158.984C159.752 7.14001 160.316 6.95401 160.676 6.58201C161.036 6.21001 161.216 5.71801 161.216 5.10601C161.216 4.50601 161.036 4.02601 160.676 3.66601C160.328 3.30601 159.758 3.12601 158.966 3.12601H156.806V7.14001Z" fill="#F6F5EF"/>
<path d="M166.257 13.8V1.20001H174.483V3.05401H168.561V6.51001H173.943V8.31001H168.561V11.946H174.483V13.8H166.257Z" fill="#F6F5EF"/>
<path d="M181.505 14.016C180.581 14.016 179.765 13.86 179.057 13.548C178.349 13.224 177.791 12.768 177.383 12.18C176.975 11.58 176.765 10.854 176.753 10.002H179.183C179.207 10.59 179.417 11.088 179.813 11.496C180.221 11.892 180.779 12.09 181.487 12.09C182.099 12.09 182.585 11.946 182.945 11.658C183.305 11.358 183.485 10.962 183.485 10.47C183.485 9.95401 183.323 9.55201 182.999 9.26401C182.687 8.97601 182.267 8.74201 181.739 8.56201C181.211 8.38201 180.647 8.19001 180.047 7.98601C179.075 7.65001 178.331 7.21801 177.815 6.69001C177.311 6.16201 177.059 5.46001 177.059 4.58401C177.047 3.84001 177.221 3.20401 177.581 2.67601C177.953 2.13601 178.457 1.72201 179.093 1.43401C179.729 1.13401 180.461 0.984009 181.289 0.984009C182.129 0.984009 182.867 1.13401 183.503 1.43401C184.151 1.73401 184.655 2.15401 185.015 2.69401C185.387 3.23401 185.585 3.87601 185.609 4.62001H183.143C183.131 4.17601 182.957 3.78601 182.621 3.45001C182.297 3.10201 181.841 2.92801 181.253 2.92801C180.749 2.91601 180.323 3.04201 179.975 3.30601C179.639 3.55801 179.471 3.93001 179.471 4.42201C179.471 4.84201 179.603 5.17801 179.867 5.43001C180.131 5.67001 180.491 5.87401 180.947 6.04201C181.403 6.21001 181.925 6.39001 182.513 6.58201C183.137 6.79801 183.707 7.05001 184.223 7.33801C184.739 7.62601 185.153 8.01001 185.465 8.49001C185.777 8.95801 185.933 9.56401 185.933 10.308C185.933 10.968 185.765 11.58 185.429 12.144C185.093 12.708 184.595 13.164 183.935 13.512C183.275 13.848 182.465 14.016 181.505 14.016Z" fill="#F6F5EF"/>
</g>
</svg>
