<svg  viewBox="0 0 40 40" fill="none" xmlns="http://www.w3.org/2000/svg">
<path fill-rule="evenodd" clip-rule="evenodd" d="M25.665 13.1249C24.73 13.0699 22.805 13.0149 19.89 13.0149H19.505C16.7 13.0149 14.83 13.0699 13.895 13.1799C12.63 13.2899 11.75 13.6199 11.255 14.0599C10.815 14.4449 10.485 15.1599 10.375 16.0949C10.32 16.6999 10.265 17.9649 10.265 19.8899V20.1649C10.265 21.9799 10.32 23.2449 10.43 23.8499C10.595 24.7299 10.87 25.3899 11.42 25.7749C11.97 26.2149 12.905 26.4899 14.225 26.5999C15.16 26.6549 17.085 26.7099 20 26.7099H20.385C23.19 26.7099 25.06 26.6549 25.995 26.5449C27.26 26.4349 28.14 26.1049 28.635 25.6649C29.075 25.2799 29.405 24.5649 29.515 23.6299C29.57 23.0249 29.625 21.7599 29.625 19.8349V19.5599C29.625 17.7449 29.57 16.4799 29.46 15.8749C29.295 14.9949 29.02 14.3349 28.47 13.9499C27.92 13.5099 26.985 13.2349 25.665 13.1249ZM23.52 19.8899L17.47 23.5199V16.2599L23.52 19.8899Z" fill="#F6F5EF"/>
<rect x="1" y="1" width="39" height="39" rx="5.5" stroke="#F6F5EF" stroke-opacity="0.5"/>
</svg>
